<svg id="Layer_1" data-name="Layer 1" xmlns="http://www.w3.org/2000/svg" xmlns:xlink="http://www.w3.org/1999/xlink" viewBox="0 0 420 420"><defs><style>.cls-1,.cls-23,.cls-26,.cls-6{fill:none;}.cls-2{fill:#262f35;opacity:0;}.cls-3{fill:#ccebf2;}.cls-4{fill:#495c5e;}.cls-5{clip-path:url(#clip-path);}.cls-6{stroke:#2d393a;stroke-miterlimit:10;stroke-width:15px;}.cls-26,.cls-6{stroke-linecap:round;}.cls-7{clip-path:url(#clip-path-2);}.cls-8{fill:#aec6cc;}.cls-9{fill:#616d6d;}.cls-10{fill:#849799;}.cls-11{fill:#4b5656;}.cls-12{fill:#626d6d;}.cls-13{fill:#9aa8a9;}.cls-14{fill:#d178ad;}.cls-15{fill:#83d1de;}.cls-16{fill:#6a81c0;}.cls-17{fill:#6b81c0;}.cls-18{clip-path:url(#clip-path-3);}.cls-19{fill:#a7c0d1;}.cls-20{clip-path:url(#clip-path-4);}.cls-21{fill:#ced4e0;}.cls-22{fill:#a7c0d2;}.cls-23{stroke:#52b0c6;}.cls-23,.cls-26{stroke-linejoin:round;stroke-width:5px;}.cls-24{fill:#0b7191;}.cls-25{fill:#a4adc1;}.cls-26{stroke:#83d1de;}</style><clipPath id="clip-path" transform="translate(-87.8 -228.91)"><path class="cls-1" d="M114.9,509.48H480.38a0,0,0,0,1,0,0v6.9a20,20,0,0,1-20,20H134.9a20,20,0,0,1-20-20v-6.9a0,0,0,0,1,0,0Z"/></clipPath><clipPath id="clip-path-2" transform="translate(-87.8 -228.91)"><rect class="cls-1" x="114.9" y="305.51" width="365.48" height="230.87" rx="20"/></clipPath><clipPath id="clip-path-3" transform="translate(-87.8 -228.91)"><polygon class="cls-1" points="172.54 419.74 205.57 453.3 139.95 453.48 172.54 419.74"/></clipPath><clipPath id="clip-path-4" transform="translate(-87.8 -228.91)"><polygon class="cls-1" points="168 424.28 195.57 453.14 140.8 453.29 168 424.28"/></clipPath></defs><rect class="cls-2" width="420" height="420" rx="41.73"/><rect class="cls-3" x="27.1" y="76.6" width="365.48" height="230.87" rx="20"/><path class="cls-4" d="M27.1,280.57H392.58a0,0,0,0,1,0,0v6.9a20,20,0,0,1-20,20H47.1a20,20,0,0,1-20-20v-6.9a0,0,0,0,1,0,0Z"/><g class="cls-5"><g id="shadow"><path class="cls-6" d="M106.43,531.91h360" transform="translate(-87.8 -228.91)"/><path class="cls-6" d="M476.09,510.13c.32,8.86-3.52,16.71-10.06,20.06a17.12,17.12,0,0,1-9,1.72" transform="translate(-87.8 -228.91)"/></g></g><g class="cls-7"><rect class="cls-8" x="380.98" y="76.6" width="11.59" height="203.97"/></g><rect class="cls-9" x="147.06" y="340.05" width="130.56" height="18.72" rx="9.36"/><rect class="cls-10" x="147.06" y="340.05" width="109.81" height="18.72" rx="9.36"/><path class="cls-11" d="M336.36,569H258.91a8.35,8.35,0,0,0,2.61-1.05c3.11-1.94,4.06-5.62,4.65-8.54a138,138,0,0,0,2.13-23H327a138,138,0,0,0,2.13,23c.6,2.92,1.55,6.6,4.65,8.54A8.35,8.35,0,0,0,336.36,569Z" transform="translate(-87.8 -228.91)"/><path class="cls-12" d="M268.3,536.38a138,138,0,0,1-2.13,23c-.59,2.92-1.54,6.6-4.65,8.54a8.35,8.35,0,0,1-2.61,1.05h58.76c-5.42-9.21-3.93-21.83-5.71-32.58Z" transform="translate(-87.8 -228.91)"/><g id="grey_text" data-name="grey text"><rect class="cls-13" x="53.37" y="96.17" width="106.93" height="11.48" rx="5.74"/><rect class="cls-13" x="53.37" y="117.98" width="79.38" height="6.15" rx="3.07"/><rect class="cls-13" x="51.89" y="145.12" width="66.62" height="6.29" rx="3.15"/><rect class="cls-13" x="124.09" y="144.02" width="30.18" height="6.15" rx="3.07"/><rect class="cls-13" x="140.1" y="118.48" width="31.01" height="6.29" rx="3.15"/><rect class="cls-13" x="52.15" y="131.8" width="56.05" height="6.29" rx="3.15"/><rect class="cls-13" x="113.34" y="131" width="46.96" height="6.15" rx="3.07"/></g><g id="pie_chart" data-name="pie chart"><path class="cls-14" d="M336.36,367h37.5a37.5,37.5,0,1,1-61.92-28.46Z" transform="translate(-87.8 -228.91)"/><path class="cls-15" d="M336.36,367l24.38-28.49A37.52,37.52,0,0,1,373.86,367h-37.5Z" transform="translate(-87.8 -228.91)"/><path class="cls-16" d="M336.36,367l-24.43-28.45a37.5,37.5,0,0,1,48.85,0Z" transform="translate(-87.8 -228.91)"/><rect class="cls-15" x="291.35" y="132.77" width="31.01" height="6.29" rx="3.15"/><rect class="cls-15" x="291.35" y="120.72" width="37.6" height="6.29" rx="3.15"/><rect class="cls-17" x="325.77" y="93.03" width="21.56" height="6.29" rx="3.15"/><rect class="cls-14" x="277.61" y="180.49" width="21.56" height="6.29" rx="3.15"/><rect class="cls-14" x="277.61" y="169.31" width="27.47" height="6.29" rx="3.15"/><rect class="cls-14" x="308.73" y="169.31" width="34.88" height="6.29" rx="3.15"/><rect class="cls-17" x="265.09" y="93.03" width="55.5" height="6.29" rx="3.15"/></g><g id="house"><g class="cls-18"><rect class="cls-19" x="57.28" y="191.23" width="54.93" height="33.52"/></g><g class="cls-20"><rect class="cls-21" x="57.29" y="195.71" width="64.67" height="28.83"/></g><path class="cls-22" d="M57.24,224.19h54.93a0,0,0,0,1,0,0v22.88a4.55,4.55,0,0,1-4.55,4.55H61.79a4.55,4.55,0,0,1-4.55-4.55V224.19A0,0,0,0,1,57.24,224.19Z"/><path class="cls-21" d="M57.24,224.19h50.61a0,0,0,0,1,0,0v22.88a4.55,4.55,0,0,1-4.55,4.55H61.79a4.55,4.55,0,0,1-4.55-4.55V224.19A0,0,0,0,1,57.24,224.19Z"/><path id="Roof" class="cls-23" d="M205.1,453.59l-29.56-30.75a4.49,4.49,0,0,0-6.49,0l-29.14,30.9" transform="translate(-87.8 -228.91)"/><path class="cls-24" d="M85,229.25h0a7.37,7.37,0,0,1,7.37,7.37v15a0,0,0,0,1,0,0H77.59a0,0,0,0,1,0,0v-15A7.37,7.37,0,0,1,85,229.25Z"/><rect class="cls-19" x="137.18" y="183.63" width="52.01" height="6.15" rx="3.07"/><rect class="cls-19" x="123.5" y="208.11" width="22.71" height="6.15" rx="3.07"/><rect class="cls-19" x="113.34" y="196" width="44.21" height="6.15" rx="3.07"/><rect class="cls-19" x="165.96" y="196" width="23.22" height="6.15" rx="3.07"/><rect class="cls-19" x="153.49" y="208.11" width="35.69" height="6.15" rx="3.07"/></g><g id="chart"><rect class="cls-25" x="241.61" y="248.48" width="38.8" height="6.29" rx="3.15"/><rect class="cls-25" x="241.61" y="259.43" width="23.48" height="6.29" rx="3.15"/><path class="cls-26" d="M331.53,465.18H352a1.67,1.67,0,0,0,1.42-.78l8.78-13.82a1.68,1.68,0,0,1,2.65-.25l5,5.36a1.68,1.68,0,0,0,2.63-.22l9.77-14.63a1.69,1.69,0,0,1,3.05.58L392,472.15a1.69,1.69,0,0,0,3.21.29l6.27-15.22a1.68,1.68,0,0,1,2.53-.73l11.92,8.39a1.68,1.68,0,0,0,1,.3h18.25" transform="translate(-87.8 -228.91)"/></g></svg>